<svg id="图层_1" data-name="图层 1" xmlns="http://www.w3.org/2000/svg" viewBox="0 0 139.74 139.74"><defs><style>.cls-1{fill:#1a3356;}.cls-2{fill:#153151;}.cls-3{fill:#fff;}</style></defs><title>icon</title><path class="cls-1" d="M40,113.94H27.92a4.71,4.71,0,0,1-4.71-4.7V97.11a4.71,4.71,0,0,1,4.71-4.7H40a4.71,4.71,0,0,1,4.71,4.7v12.12A4.71,4.71,0,0,1,40,113.94ZM27.92,94.7a2.42,2.42,0,0,0-2.41,2.41v12.12a2.42,2.42,0,0,0,2.41,2.41H40a2.42,2.42,0,0,0,2.41-2.41V97.11A2.42,2.42,0,0,0,40,94.7Z"/><path class="cls-1" d="M74.17,113.94H63.09a5.23,5.23,0,0,1-5.23-5.23V97.63a5.23,5.23,0,0,1,5.23-5.23H74.17a5.23,5.23,0,0,1,5.23,5.23v11.08A5.23,5.23,0,0,1,74.17,113.94ZM63.09,94.7a2.94,2.94,0,0,0-2.94,2.94v11.08a2.94,2.94,0,0,0,2.94,2.94H74.17a2.94,2.94,0,0,0,2.94-2.94V97.63a2.94,2.94,0,0,0-2.94-2.94Z"/><path class="cls-1" d="M109,113.94H97.48a5,5,0,0,1-5-5V97.39a5,5,0,0,1,5-5H109a5,5,0,0,1,5,5V109A5,5,0,0,1,109,113.94ZM97.48,94.7a2.7,2.7,0,0,0-2.69,2.69V109a2.7,2.7,0,0,0,2.69,2.69H109a2.7,2.7,0,0,0,2.69-2.69V97.39A2.7,2.7,0,0,0,109,94.7Z"/><path class="cls-1" d="M68.63,94.7a1.14,1.14,0,0,1-1.15-1.15v-24a1.15,1.15,0,1,1,2.29,0v24A1.14,1.14,0,0,1,68.63,94.7Z"/><path class="cls-1" d="M104.41,93.55h-2.29V81.73a5.69,5.69,0,0,0-5.68-5.68H40.81a5.69,5.69,0,0,0-5.68,5.68V93.55H32.84V81.73a8,8,0,0,1,8-8H96.44a8,8,0,0,1,8,8Z"/><path class="cls-2" d="M83.49,24c-.24,0-.48,0-.72,0a14.65,14.65,0,0,0-29,2.92A13.06,13.06,0,0,0,40.79,40c0,9,7.9,14.11,15.12,14.11H83.49a15.06,15.06,0,0,0,0-30.13Z"/><path class="cls-1" d="M83.49,55.27H55.91c-8,0-16.27-5.71-16.27-15.25a14.25,14.25,0,0,1,13-14.16,15.79,15.79,0,0,1,31-3,16.21,16.21,0,0,1-.18,32.42ZM68.42,13.48A13.52,13.52,0,0,0,54.92,27v1.14H53.78A12,12,0,0,0,41.93,40c0,8.11,7.11,13,14,13H83.49a13.92,13.92,0,1,0,0-27.84l-.39,0-1.26.06-.2-1A13.54,13.54,0,0,0,68.42,13.48Z"/><path class="cls-3" d="M59.82,27.64a1.14,1.14,0,0,1-1.15-1.15A9.94,9.94,0,0,1,76,19.86a1.15,1.15,0,0,1-1.71,1.53A7.65,7.65,0,0,0,61,26.49,1.14,1.14,0,0,1,59.82,27.64Z"/><path class="cls-1" d="M8.67,39.71a1.14,1.14,0,0,1-1-1.67A69.64,69.64,0,0,1,69.87,0a1.15,1.15,0,1,1,0,2.29A67.35,67.35,0,0,0,9.69,39.09,1.15,1.15,0,0,1,8.67,39.71Z"/><path class="cls-1" d="M69.87,139.74A70,70,0,0,1,0,69.87a70.74,70.74,0,0,1,.49-8.32,1.15,1.15,0,0,1,2.28.27,68.62,68.62,0,0,0-.47,8.05,67.58,67.58,0,0,0,109.88,52.7,1.15,1.15,0,0,1,1.44,1.79A70,70,0,0,1,69.87,139.74Z"/><path class="cls-1" d="M131.25,102a1.15,1.15,0,0,1-1-1.66,66.86,66.86,0,0,0,7.22-30.42A68,68,0,0,0,94.21,6.81,1.15,1.15,0,0,1,95,4.67a70.32,70.32,0,0,1,44.7,65.2,69.13,69.13,0,0,1-7.47,31.46A1.15,1.15,0,0,1,131.25,102Z"/><path class="cls-1" d="M68.63,59.54a1.14,1.14,0,0,1-1.15-1.15V54.12a1.15,1.15,0,1,1,2.29,0v4.27A1.14,1.14,0,0,1,68.63,59.54Z"/><path class="cls-1" d="M68.63,66a1.14,1.14,0,0,1-1.15-1.15V63.1a1.15,1.15,0,1,1,2.29,0v1.77A1.14,1.14,0,0,1,68.63,66Z"/><path class="cls-1" d="M38.19,102H29.6a1.15,1.15,0,1,1,0-2.29h8.59a1.15,1.15,0,1,1,0,2.29Z"/><path class="cls-1" d="M38.19,108H29.6a1.15,1.15,0,0,1,0-2.29h8.59a1.15,1.15,0,0,1,0,2.29Z"/><path class="cls-1" d="M72.92,102H64.33a1.15,1.15,0,1,1,0-2.29h8.59a1.15,1.15,0,1,1,0,2.29Z"/><path class="cls-1" d="M72.92,108H64.33a1.15,1.15,0,0,1,0-2.29h8.59a1.15,1.15,0,0,1,0,2.29Z"/><path class="cls-1" d="M107.56,102H99a1.15,1.15,0,1,1,0-2.29h8.59a1.15,1.15,0,0,1,0,2.29Z"/><path class="cls-1" d="M107.56,108H99a1.15,1.15,0,0,1,0-2.29h8.59a1.15,1.15,0,0,1,0,2.29Z"/><circle class="cls-2" cx="129.55" cy="104.35" r="4.07"/><path class="cls-1" d="M129.55,109.57a5.22,5.22,0,1,1,5.22-5.22A5.23,5.23,0,0,1,129.55,109.57Zm0-8.15a2.93,2.93,0,1,0,2.93,2.93A2.93,2.93,0,0,0,129.55,101.42Z"/><circle class="cls-2" cx="7.27" cy="42.64" r="4.07"/><path class="cls-1" d="M7.27,47.86a5.22,5.22,0,1,1,5.22-5.22A5.23,5.23,0,0,1,7.27,47.86Zm0-8.15a2.93,2.93,0,1,0,2.93,2.93A2.93,2.93,0,0,0,7.27,39.71Z"/><path class="cls-3" d="M90.92,46.77A1.14,1.14,0,0,1,90,44.95a9.22,9.22,0,0,0-1.7-12.72,1.15,1.15,0,0,1,1.42-1.8,11.51,11.51,0,0,1,2.12,15.87A1.14,1.14,0,0,1,90.92,46.77Z"/></svg>