<svg id="图层_1" data-name="图层 1" xmlns="http://www.w3.org/2000/svg" viewBox="0 0 136.67 136.67"><defs><style>.cls-1{fill:#dabb5f;}.cls-2{fill:#e1be67;}.cls-3{fill:#e1bf5f;}</style></defs><title>icon</title><path class="cls-1" d="M119.84,107.45h-103A16.85,16.85,0,0,1,0,90.63V16.83A16.85,16.85,0,0,1,16.83,0h103a16.85,16.85,0,0,1,16.83,16.83v73.8A16.85,16.85,0,0,1,119.84,107.45ZM16.83,2.3A14.55,14.55,0,0,0,2.3,16.83v73.8a14.55,14.55,0,0,0,14.53,14.53h103a14.55,14.55,0,0,0,14.53-14.53V16.83A14.55,14.55,0,0,0,119.84,2.3Z"/><path class="cls-1" d="M93.4,136.67H43.27l12.6-31.51H80.79Zm-46.74-2.3H90L79.24,107.45H57.43Z"/><path class="cls-1" d="M106.31,136.67H30.36a1.15,1.15,0,1,1,0-2.3h75.95a1.15,1.15,0,1,1,0,2.3Z"/><path class="cls-1" d="M68.33,98.86a1.15,1.15,0,0,1-1.15-1.15V91.87a1.15,1.15,0,0,1,2.3,0v5.84A1.15,1.15,0,0,1,68.33,98.86Z"/><path class="cls-2" d="M105.68,19.76a3,3,0,1,0-5.95,0V38.4a5,5,0,0,1,1.27,8l-5.73,5.73a1.15,1.15,0,1,1-1.62-1.62l5.73-5.73a2.74,2.74,0,0,0-1.94-4.67,2.72,2.72,0,0,0-1.94.8L86,50.46V72.2H98.81v-14a1.15,1.15,0,0,1,.34-.81l6.53-6.53Z"/><path class="cls-2" d="M34,16.78a3,3,0,0,0-3,3V50.89l6.53,6.53a1.15,1.15,0,0,1,.34.81v14H50.68V50.46l-9.52-9.52a2.74,2.74,0,0,0-3.87,3.87L43,50.55a1.15,1.15,0,0,1-1.62,1.62l-5.73-5.73a5,5,0,0,1,1.27-8V19.76A3,3,0,0,0,34,16.78Z"/><circle class="cls-2" cx="68.33" cy="10.59" r="2.75"/><circle class="cls-2" cx="57.34" cy="10.59" r="2.75"/><circle class="cls-2" cx="79.33" cy="10.59" r="2.75"/><path class="cls-3" d="M68.33,28.23a1.15,1.15,0,0,1-1.15-1.15V13.34a1.15,1.15,0,0,1,2.3,0V27.08A1.15,1.15,0,0,1,68.33,28.23Z"/><path class="cls-3" d="M73.83,28.23a1.15,1.15,0,0,1-1.15-1.15V23a1.15,1.15,0,0,1,.34-.81L78.18,17V13.34a1.15,1.15,0,0,1,2.3,0v4.12a1.15,1.15,0,0,1-.34.81L75,23.43v3.65A1.15,1.15,0,0,1,73.83,28.23Z"/><path class="cls-3" d="M62.84,28.23a1.15,1.15,0,0,1-1.15-1.15V23.43l-5.16-5.16a1.15,1.15,0,0,1-.34-.81V13.34a1.15,1.15,0,0,1,2.3,0V17l5.16,5.16A1.15,1.15,0,0,1,64,23v4.12A1.15,1.15,0,0,1,62.84,28.23Z"/><polygon class="cls-3" points="85.02 35.1 51.65 35.1 51.65 27.08 53.94 27.08 53.94 32.8 82.72 32.8 82.72 27.08 85.02 27.08 85.02 35.1"/><path class="cls-1" d="M135.52,83.79H1.15a1.15,1.15,0,1,1,0-2.3H135.52a1.15,1.15,0,0,1,0,2.3Z"/></svg>