<svg id="图层_1" data-name="图层 1" xmlns="http://www.w3.org/2000/svg" viewBox="0 0 123.72 137.73"><defs><style>.cls-1{fill:#dabb5f;}.cls-2{fill:#e1bf5f;}.cls-3{fill:#e1be67;}</style></defs><title>icon</title><path class="cls-1" d="M117.66,74.39H53.56a11.58,11.58,0,0,1-8.91-4.17l-7-8.44a8.92,8.92,0,0,0-6.87-3.22H25.07V10.21A10.23,10.23,0,0,1,35.29,0h72.13a10.25,10.25,0,0,1,10.23,10.23v40.2a1.15,1.15,0,1,1-2.3,0V10.23a8,8,0,0,0-7.94-7.94H35.29a7.93,7.93,0,0,0-7.93,7.91v46h3.37a11.22,11.22,0,0,1,8.64,4l7,8.44a9.28,9.28,0,0,0,7.15,3.35h61.8V62.54a1.15,1.15,0,1,1,2.3,0Z"/><path class="cls-1" d="M27.37,58.55H6.06V32.2a6.84,6.84,0,0,1,6.83-6.83H27.37Zm-19-2.3H25.07V27.66H12.89A4.54,4.54,0,0,0,8.36,32.2Z"/><path class="cls-2" d="M59.33,56.49H45.39a6.06,6.06,0,1,1,0-12.11H59.33a6.06,6.06,0,1,1,0,12.11ZM45.39,46.67a3.76,3.76,0,1,0,0,7.52H59.33a3.76,3.76,0,1,0,0-7.52Z"/><path class="cls-1" d="M118.51,137.73H5.21A5.21,5.21,0,0,1,0,132.53V63.77a7.53,7.53,0,0,1,7.52-7.52H31a10.68,10.68,0,0,1,8.23,3.85l7.35,8.81a8.78,8.78,0,0,0,6.77,3.17h62.25a8.15,8.15,0,0,1,8.14,8.14v52.3A5.21,5.21,0,0,1,118.51,137.73ZM7.52,58.55A5.23,5.23,0,0,0,2.3,63.77v68.76a2.91,2.91,0,0,0,2.91,2.91H118.51a2.91,2.91,0,0,0,2.91-2.91V80.23a5.85,5.85,0,0,0-5.85-5.85H53.32a11.07,11.07,0,0,1-8.53-4l-7.35-8.81a8.38,8.38,0,0,0-6.46-3Z"/><rect class="cls-1" x="40.47" y="33.03" width="67.2" height="2.85" rx="0.48" ry="0.48"/><rect class="cls-1" x="40.47" y="23.66" width="67.2" height="2.85" rx="0.48" ry="0.48"/><rect class="cls-1" x="40.47" y="14.29" width="67.2" height="2.85" rx="0.48" ry="0.48"/><path class="cls-3" d="M85.12,103.62a6.61,6.61,0,0,0-6.47-8l-.23,0A15.88,15.88,0,1,0,47.09,101a13.24,13.24,0,0,0,1.08,26.44H83.94a11.92,11.92,0,0,0,1.17-23.79Zm-17,17.16H60.35a6,6,0,0,1-6-6v-1.8l-2.41,2.41a.86.86,0,1,1-1.22-1.22l3.88-3.88h0l.61-.61,4.49,4.49a.86.86,0,0,1-1.22,1.22L56,112.94v1.8a4.32,4.32,0,0,0,4.32,4.32h7.76a4.32,4.32,0,0,0,4.32-4.32.86.86,0,0,1,1.72,0A6,6,0,0,1,68.12,120.78Zm9.67-17.23-3.88,3.88h0l-.61.61-.61-.61h0l-3.88-3.88A.86.86,0,1,1,70,102.34l2.41,2.41v-1.8a4.32,4.32,0,0,0-4.32-4.32H60.35A4.32,4.32,0,0,0,56,102.95a.86.86,0,0,1-1.72,0,6,6,0,0,1,6-6h7.76a6,6,0,0,1,6,6v1.8l2.41-2.41a.86.86,0,1,1,1.22,1.22Z"/></svg>