<svg id="图层_1" data-name="图层 1" xmlns="http://www.w3.org/2000/svg" viewBox="0 0 123.72 137.73"><defs><style>.cls-1{fill:#1a3356;}.cls-2{fill:#e1bf5f;}.cls-3{fill:#dabb5f;}</style></defs><title>icon</title><path class="cls-1" d="M117.66,74.39H53.56a11.57,11.57,0,0,1-8.91-4.17l-7-8.44a8.92,8.92,0,0,0-6.87-3.22H25.07V10.21A10.23,10.23,0,0,1,35.29,0h72.13a10.25,10.25,0,0,1,10.23,10.23v40.2a1.15,1.15,0,1,1-2.3,0V10.23a8,8,0,0,0-7.94-7.94H35.29a7.93,7.93,0,0,0-7.93,7.92v46h3.37a11.22,11.22,0,0,1,8.64,4l7,8.44a9.27,9.27,0,0,0,7.15,3.35h61.8V62.54a1.15,1.15,0,1,1,2.3,0Z"/><path class="cls-1" d="M27.37,58.55H6.06V32.2a6.84,6.84,0,0,1,6.83-6.84H27.37Zm-19-2.3H25.07V27.66H12.89A4.54,4.54,0,0,0,8.36,32.2Z"/><path class="cls-2" d="M59.33,56.49H45.39a6.06,6.06,0,1,1,0-12.12H59.33a6.06,6.06,0,1,1,0,12.12ZM45.39,46.67a3.76,3.76,0,1,0,0,7.53H59.33a3.76,3.76,0,1,0,0-7.53Z"/><path class="cls-1" d="M118.51,137.73H5.21A5.21,5.21,0,0,1,0,132.53V63.77a7.53,7.53,0,0,1,7.52-7.52H31a10.68,10.68,0,0,1,8.23,3.85l7.35,8.82a8.78,8.78,0,0,0,6.77,3.17h62.25a8.15,8.15,0,0,1,8.14,8.14v52.3A5.21,5.21,0,0,1,118.51,137.73ZM7.52,58.55A5.23,5.23,0,0,0,2.3,63.77v68.76a2.91,2.91,0,0,0,2.91,2.91H118.51a2.91,2.91,0,0,0,2.91-2.91V80.23a5.85,5.85,0,0,0-5.85-5.85H53.32a11.07,11.07,0,0,1-8.53-4l-7.35-8.82a8.38,8.38,0,0,0-6.46-3Z"/><rect class="cls-3" x="40.47" y="33.03" width="67.2" height="2.85" rx="0.48" ry="0.48"/><rect class="cls-3" x="40.47" y="23.66" width="67.2" height="2.85" rx="0.48" ry="0.48"/><rect class="cls-3" x="40.47" y="14.29" width="67.2" height="2.85" rx="0.48" ry="0.48"/><path class="cls-1" d="M83.94,128.56H48.17A14.39,14.39,0,0,1,45.79,100a15.73,15.73,0,0,1-.1-1.71A17,17,0,0,1,79.35,94.5a7.78,7.78,0,0,1,7.06,7.74c0,.13,0,.27,0,.41a13.07,13.07,0,0,1-2.46,25.91Zm-21.2-45a14.67,14.67,0,0,0-14.52,17.26l.21,1.24-1.25.1a12.1,12.1,0,0,0,1,24.15H83.94A10.77,10.77,0,0,0,85,104.77l-1.28-.13.27-1.26a5.46,5.46,0,0,0-5.35-6.62l-.2,0-1,0-.16-1A14.68,14.68,0,0,0,62.74,83.52Z"/><path class="cls-2" d="M73.29,108l-4.49-4.49A.86.86,0,1,1,70,102.34l3.27,3.27,3.27-3.27a.86.86,0,1,1,1.22,1.22Z"/><path class="cls-2" d="M73.29,107.69a.86.86,0,0,1-.86-.86v-3.88a4.32,4.32,0,0,0-4.32-4.32H60.35A4.32,4.32,0,0,0,56,102.95a.86.86,0,0,1-1.72,0,6,6,0,0,1,6-6h7.76a6,6,0,0,1,6,6v3.88A.86.86,0,0,1,73.29,107.69Z"/><path class="cls-2" d="M51.3,115.61a.86.86,0,0,1-.61-1.47l4.49-4.49,4.49,4.49a.86.86,0,0,1-1.22,1.22l-3.27-3.28-3.27,3.27A.86.86,0,0,1,51.3,115.61Z"/><path class="cls-2" d="M68.12,120.78H60.35a6,6,0,0,1-6-6v-3.88a.86.86,0,1,1,1.72,0v3.88a4.32,4.32,0,0,0,4.32,4.32h7.76a4.32,4.32,0,0,0,4.32-4.32.86.86,0,0,1,1.72,0A6,6,0,0,1,68.12,120.78Z"/></svg>