<svg id="图层_1" data-name="图层 1" xmlns="http://www.w3.org/2000/svg" viewBox="0 0 140.52 127.73"><defs><style>.cls-1{fill:#e1bf5f;}.cls-2{fill:#dabb5f;}.cls-3{fill:#e1be67;}</style></defs><title>icon</title><path class="cls-1" d="M90.79,28.75a1.14,1.14,0,0,1-.81-.34,22.72,22.72,0,0,0-32.14,0,1.15,1.15,0,1,1-1.62-1.62,25,25,0,0,1,35.38,0,1.15,1.15,0,0,1-.81,2Z"/><path class="cls-1" d="M95.07,21.25a1.14,1.14,0,0,1-.81-.34,28.78,28.78,0,0,0-40.7,0,1.15,1.15,0,0,1-1.62-1.62,31.07,31.07,0,0,1,43.94,0,1.15,1.15,0,0,1-.81,2Z"/><path class="cls-1" d="M84.92,34.62a1.14,1.14,0,0,1-.81-.34,14.42,14.42,0,0,0-20.39,0,1.15,1.15,0,1,1-1.62-1.62,16.72,16.72,0,0,1,23.64,0,1.15,1.15,0,0,1-.81,2Z"/><path class="cls-1" d="M80,39.33a1.14,1.14,0,0,1-.81-.34,7.59,7.59,0,0,0-10.48,0,1.15,1.15,0,1,1-1.62-1.62,9.71,9.71,0,0,1,13.73,0,1.15,1.15,0,0,1-.81,2Z"/><path class="cls-2" d="M103.54,105.25H44.29V104.1A9.75,9.75,0,0,1,54,94.37H93.8a9.75,9.75,0,0,1,9.74,9.74ZM46.67,103h54.48a7.45,7.45,0,0,0-7.35-6.29H54A7.46,7.46,0,0,0,46.67,103Z"/><path class="cls-1" d="M99.24,60.87H82.81a1.15,1.15,0,1,1,0-2.3H98.43l7.12-5.73h18.8a1.15,1.15,0,0,1,0,2.3h-18Z"/><path class="cls-1" d="M139.37,78.05H105.55l-7.12-5.73H86.37a1.15,1.15,0,0,1,0-2.3H99.24l7.12,5.73h33a1.15,1.15,0,0,1,0,2.3Z"/><path class="cls-1" d="M114.3,66.6H84.59a1.15,1.15,0,1,1,0-2.3H114.3a1.15,1.15,0,0,1,0,2.3Z"/><path class="cls-1" d="M65,60.87H48.59l-7.43-6a1.15,1.15,0,1,1,1.44-1.79l6.8,5.47H65a1.15,1.15,0,1,1,0,2.3Z"/><path class="cls-1" d="M42.28,78.05H1.15a1.15,1.15,0,1,1,0-2.3H41.47L48.59,70H63.65a1.15,1.15,0,1,1,0,2.3H49.4Z"/><path class="cls-1" d="M65.59,66.6H24.34a1.15,1.15,0,0,1,0-2.3H65.59a1.15,1.15,0,0,1,0,2.3Z"/><path class="cls-3" d="M82.81,61.44v-2.6A4.84,4.84,0,0,0,78,54H69.86A4.84,4.84,0,0,0,65,58.84v2.6Z"/><path class="cls-2" d="M83.1,61.73H64.73V58.84a5.14,5.14,0,0,1,5.13-5.13H78a5.14,5.14,0,0,1,5.13,5.13Zm-17.8-.57H82.53V58.84A4.56,4.56,0,0,0,78,54.28H69.86a4.56,4.56,0,0,0-4.56,4.56Z"/><polygon class="cls-3" points="83.26 63.73 64.57 63.73 56.11 85.49 56.11 95.52 91.71 95.52 91.71 85.49 83.26 63.73"/><path class="cls-2" d="M92,95.8H55.83l0-10.41,8.53-21.94H83.45l8.54,22Zm-35.6-.57h35V85.55L83.06,64H64.76L56.4,85.55Z"/><path class="cls-2" d="M113,127.73H34.85a1.15,1.15,0,1,1,0-2.3H113a1.15,1.15,0,1,1,0,2.3Z"/><path class="cls-2" d="M73.91,127.73a1.15,1.15,0,0,1-1.15-1.15V104.91a1.15,1.15,0,0,1,2.3,0v21.67A1.15,1.15,0,0,1,73.91,127.73Z"/><path class="cls-1" d="M118.1,70.19a4.81,4.81,0,1,1,4.81-4.81A4.81,4.81,0,0,1,118.1,70.19Zm0-7.32a2.51,2.51,0,1,0,2.51,2.51A2.51,2.51,0,0,0,118.1,62.87Z"/><path class="cls-1" d="M20.48,70.19a5,5,0,1,1,5-5A5,5,0,0,1,20.48,70.19Zm0-7.73a2.72,2.72,0,1,0,2.72,2.72A2.72,2.72,0,0,0,20.48,62.46Z"/><path class="cls-2" d="M127.61,105H12.91A12.93,12.93,0,0,1,0,92.12V12.91A12.92,12.92,0,0,1,12.91,0H127.61a12.92,12.92,0,0,1,12.91,12.91V92.12A12.93,12.93,0,0,1,127.61,105ZM12.91,2.3A10.63,10.63,0,0,0,2.3,12.91V92.12a10.63,10.63,0,0,0,10.62,10.62H127.61a10.63,10.63,0,0,0,10.62-10.62V12.91A10.63,10.63,0,0,0,127.61,2.3Z"/></svg>