<svg id="图层_1" data-name="图层 1" xmlns="http://www.w3.org/2000/svg" viewBox="0 0 142.19 130.88"><defs><style>.cls-1{fill:#040000;}</style></defs><title>icon</title><path class="cls-1" d="M125.88,107.61H16.31A16.33,16.33,0,0,1,0,91.29v-75A16.33,16.33,0,0,1,16.31,0H125.88a16.33,16.33,0,0,1,16.31,16.31v75A16.33,16.33,0,0,1,125.88,107.61ZM16.31,2.29a14,14,0,0,0-14,14v75a14,14,0,0,0,14,14H125.88a14,14,0,0,0,14-14v-75a14,14,0,0,0-14-14Z"/><path class="cls-1" d="M97.31,130.88H44.87l13.36-25.56H84Zm-48.66-2.29H93.53l-11-21H59.62Z"/><path class="cls-1" d="M110.63,130.88H31.56a1.15,1.15,0,1,1,0-2.29h79.07a1.15,1.15,0,0,1,0,2.29Z"/><rect class="cls-1" x="1.15" y="84.84" width="139.9" height="2.29"/><path class="cls-1" d="M71.09,101.76a1.14,1.14,0,0,1-1.15-1.15V94.76a1.15,1.15,0,0,1,2.29,0v5.85A1.14,1.14,0,0,1,71.09,101.76Z"/><polygon class="cls-1" points="59.56 56.77 57.27 56.77 57.27 46.46 26.11 46.46 26.11 44.17 59.56 44.17 59.56 56.77"/><path class="cls-1" d="M58.41,67.08a5.73,5.73,0,1,1,5.73-5.73A5.73,5.73,0,0,1,58.41,67.08Zm0-9.16a3.44,3.44,0,1,0,3.44,3.44A3.44,3.44,0,0,0,58.41,57.92Z"/><path class="cls-1" d="M21.76,52.36a5.73,5.73,0,1,1,5.73-5.73A5.73,5.73,0,0,1,21.76,52.36Zm0-9.16a3.44,3.44,0,1,0,3.44,3.44A3.44,3.44,0,0,0,21.76,43.2Z"/><path class="cls-1" d="M83.61,76.24a5.73,5.73,0,1,1,5.73-5.73A5.73,5.73,0,0,1,83.61,76.24Zm0-9.16A3.44,3.44,0,1,0,87,70.51,3.44,3.44,0,0,0,83.61,67.08Z"/><path class="cls-1" d="M114.75,53.33a5.73,5.73,0,1,1,5.73-5.73A5.73,5.73,0,0,1,114.75,53.33Zm0-9.16a3.44,3.44,0,1,0,3.44,3.44A3.44,3.44,0,0,0,114.75,44.17Z"/><path class="cls-1" d="M85.9,33.86a5.73,5.73,0,1,1,5.73-5.73A5.73,5.73,0,0,1,85.9,33.86Zm0-9.16a3.44,3.44,0,1,0,3.44,3.44A3.44,3.44,0,0,0,85.9,24.7Z"/><path class="cls-1" d="M44.67,19a5.73,5.73,0,1,1,5.73-5.73A5.73,5.73,0,0,1,44.67,19Zm0-9.16a3.44,3.44,0,1,0,3.44,3.44A3.44,3.44,0,0,0,44.67,9.81Z"/><rect class="cls-1" x="88.19" y="69.37" width="51.32" height="2.29"/><rect class="cls-1" x="90.98" y="26.99" width="42.09" height="2.29"/><polygon class="cls-1" points="134.22 48.75 119.33 48.75 119.33 46.46 131.93 46.46 131.93 19.36 141.04 19.36 141.04 21.65 134.22 21.65 134.22 48.75"/><rect class="cls-1" x="49.25" y="12.1" width="91.57" height="2.29"/><polygon class="cls-1" points="22.91 43.03 20.62 43.03 20.62 21.26 1.15 21.26 1.15 18.97 22.91 18.97 22.91 43.03"/><path class="cls-1" d="M72.15,55.61a1.14,1.14,0,0,1-.81-.34L63.4,47.33l7.95-7.95A1.15,1.15,0,1,1,73,41l-6.33,6.33L73,53.66a1.15,1.15,0,0,1-.81,2Z"/><path class="cls-1" d="M93.57,55.89a1.15,1.15,0,0,1-.81-2l6.33-6.33-6.33-6.33a1.15,1.15,0,1,1,1.62-1.62l7.95,7.95-7.95,7.95A1.14,1.14,0,0,1,93.57,55.89Z"/><path class="cls-1" d="M78.05,56.17a1.15,1.15,0,0,1-1-1.68l7.81-14.83a1.14,1.14,0,1,1,2,1.06L79.07,55.56A1.14,1.14,0,0,1,78.05,56.17Z"/><path class="cls-1" d="M18.61,83h0a1.15,1.15,0,0,1-1.08-.8L12.75,67.19l-1.34,4a1.14,1.14,0,0,1-1.09.78H2.16a1.15,1.15,0,0,1,0-2.29H9.5l2.19-6.57a1.12,1.12,0,0,1,1.1-.78,1.15,1.15,0,0,1,1.08.8l4.76,15,6.13-18.61a1.15,1.15,0,0,1,1.09-.79h0a1.15,1.15,0,0,1,1.08.8l4.71,15,1.52-4.17a1.15,1.15,0,0,1,1.08-.75H79A1.15,1.15,0,1,1,79,72H35l-2.4,6.6a1.18,1.18,0,0,1-1.1.75,1.15,1.15,0,0,1-1.07-.8L25.82,63.67,19.7,82.26A1.15,1.15,0,0,1,18.61,83Z"/></svg>