<svg id="图层_1" data-name="图层 1" xmlns="http://www.w3.org/2000/svg" viewBox="0 0 136.19 127.8"><defs><style>.cls-1{fill:#dabb5f;}.cls-2{fill:#e1bf5f;}</style></defs><title>icon</title><path class="cls-1" d="M109,127.8H45.56a10.34,10.34,0,0,1-10.33-10.33V10.33A10.34,10.34,0,0,1,45.56,0H109a10.34,10.34,0,0,1,10.33,10.33V117.47A10.34,10.34,0,0,1,109,127.8ZM45.56,2.3a8,8,0,0,0-8,8V117.47a8,8,0,0,0,8,8H109a8,8,0,0,0,8-8V10.33a8,8,0,0,0-8-8Z"/><path class="cls-1" d="M43.16,127.8H13.23a12,12,0,0,1-6.88-2.08C2.26,122.88,0,119.14,0,115.17V51.69A10.34,10.34,0,0,1,10.33,41.36H35.12a1.15,1.15,0,0,1,0,2.3H10.33a8,8,0,0,0-8,8v63.48c0,3.19,1.9,6.26,5.36,8.66a9.73,9.73,0,0,0,5.57,1.67H43.16a1.15,1.15,0,0,1,0,2.3Z"/><path class="cls-1" d="M123,127.8H93a1.15,1.15,0,0,1,0-2.3H123a9.73,9.73,0,0,0,5.57-1.67c3.46-2.39,5.36-5.47,5.36-8.66V51.69a8,8,0,0,0-8-8h-7.63a1.15,1.15,0,0,1,0-2.3h7.63a10.34,10.34,0,0,1,10.33,10.33v63.48c0,4-2.26,7.71-6.35,10.55A12,12,0,0,1,123,127.8Z"/><path class="cls-1" d="M111.67,108.28H42.92V13.64h68.75ZM45.22,106h64.16v-90H45.22Z"/><rect class="cls-1" x="53.75" y="33.29" width="18.3" height="13.58" rx="0.1" ry="0.1"/><rect class="cls-1" x="82.63" y="33.29" width="18.3" height="13.58" rx="0.1" ry="0.1"/><circle class="cls-1" cx="77.64" cy="117.81" r="4.58"/><rect class="cls-2" x="53.55" y="61.22" width="46.98" height="2.68"/><rect class="cls-2" x="53.55" y="69.64" width="46.98" height="2.68"/><rect class="cls-2" x="53.55" y="77.77" width="46.98" height="2.68"/><rect class="cls-2" x="53.55" y="86.66" width="30.92" height="2.68"/><rect class="cls-1" x="68.09" y="6.09" width="18.3" height="3.61" rx="0.79" ry="0.79"/></svg>