<svg id="图层_1" data-name="图层 1" xmlns="http://www.w3.org/2000/svg" viewBox="0 0 136.19 127.8"><defs><style>.cls-1{fill:#1a3356;}.cls-2{fill:#e1bf5f;}</style></defs><title>icon</title><path class="cls-1" d="M109,127.8H45.56a10.34,10.34,0,0,1-10.33-10.33V10.33A10.34,10.34,0,0,1,45.56,0H109a10.34,10.34,0,0,1,10.33,10.33V117.47A10.34,10.34,0,0,1,109,127.8ZM45.56,2.3a8,8,0,0,0-8,8V117.47a8,8,0,0,0,8,8H109a8,8,0,0,0,8-8V10.33a8,8,0,0,0-8-8Z"/><path class="cls-1" d="M43.16,127.8H13.23a12,12,0,0,1-6.88-2.08C2.26,122.88,0,119.14,0,115.17V51.69A10.34,10.34,0,0,1,10.33,41.36H35.12v2.3H10.33a8,8,0,0,0-8,8v63.48c0,3.19,1.9,6.26,5.36,8.66a9.71,9.71,0,0,0,5.57,1.67H43.16Z"/><path class="cls-1" d="M123,127.8H93v-2.3H123a9.71,9.71,0,0,0,5.57-1.67c3.46-2.39,5.36-5.47,5.36-8.66V51.69a8,8,0,0,0-8-8h-7.63v-2.3h7.63a10.34,10.34,0,0,1,10.33,10.33v63.48c0,4-2.26,7.71-6.35,10.55A12,12,0,0,1,123,127.8Z"/><path class="cls-1" d="M111.67,108.28H42.92V13.64h68.75ZM45.22,106h64.16v-90H45.22Z"/><path class="cls-1" d="M84.59,10.84H69.9a3,3,0,0,1,0-5.9h14.7a3,3,0,1,1,0,5.9ZM69.9,7.23a.65.65,0,1,0,0,1.31h14.7a.65.65,0,1,0,0-1.31Z"/><path class="cls-2" d="M71.83,48H54a1.37,1.37,0,0,1-1.37-1.37V33.51A1.37,1.37,0,0,1,54,32.14H71.83a1.37,1.37,0,0,1,1.37,1.37V46.64A1.37,1.37,0,0,1,71.83,48Zm-16.93-2.3h16V34.43h-16Z"/><path class="cls-2" d="M100.71,48H82.85a1.37,1.37,0,0,1-1.37-1.37V33.51a1.37,1.37,0,0,1,1.37-1.37h17.86a1.37,1.37,0,0,1,1.37,1.37V46.64A1.37,1.37,0,0,1,100.71,48Zm-16.94-2.3h16V34.43h-16Z"/><path class="cls-1" d="M77.64,123.53a5.72,5.72,0,1,1,5.72-5.73A5.73,5.73,0,0,1,77.64,123.53Zm0-9.15a3.43,3.43,0,1,0,3.43,3.43A3.43,3.43,0,0,0,77.64,114.38Z"/><rect class="cls-2" x="53.55" y="61.22" width="46.98" height="2.68"/><rect class="cls-2" x="53.55" y="69.64" width="46.98" height="2.68"/><rect class="cls-2" x="53.55" y="77.77" width="46.98" height="2.68"/><rect class="cls-2" x="53.55" y="86.66" width="30.92" height="2.68"/></svg>