<svg id="图层_1" data-name="图层 1" xmlns="http://www.w3.org/2000/svg" viewBox="0 0 140.93 130.84"><defs><style>.cls-1{fill:#040000;}</style></defs><title>icon</title><path class="cls-1" d="M115,23.11a5.31,5.31,0,1,1,5.31-5.31A5.32,5.32,0,0,1,115,23.11Zm0-8.33a3,3,0,1,0,3,3A3,3,0,0,0,115,14.78Z"/><path class="cls-1" d="M115,67.53a5.31,5.31,0,1,1,5.31-5.31A5.32,5.32,0,0,1,115,67.53Zm0-8.33a3,3,0,1,0,3,3A3,3,0,0,0,115,59.2Z"/><path class="cls-1" d="M118.18,35.61H11.82A11.83,11.83,0,0,1,0,23.79v-12A11.83,11.83,0,0,1,11.82,0H118.18A11.83,11.83,0,0,1,130,11.82v12A11.83,11.83,0,0,1,118.18,35.61ZM11.82,2.29a9.54,9.54,0,0,0-9.53,9.53v12a9.54,9.54,0,0,0,9.53,9.53H118.18a9.54,9.54,0,0,0,9.53-9.53v-12a9.54,9.54,0,0,0-9.53-9.53Z"/><path class="cls-1" d="M121.67,46.71H8.33V33.31H121.67ZM10.62,44.42H119.38V35.61H10.62Z"/><path class="cls-1" d="M118.18,80H11.82A11.83,11.83,0,0,1,0,68.21v-12A11.83,11.83,0,0,1,11.82,44.42H118.18A11.83,11.83,0,0,1,130,56.24v12A11.83,11.83,0,0,1,118.18,80ZM11.82,46.71a9.54,9.54,0,0,0-9.53,9.53v12a9.54,9.54,0,0,0,9.53,9.53H118.18a9.54,9.54,0,0,0,9.53-9.53v-12a9.54,9.54,0,0,0-9.53-9.53Z"/><path class="cls-1" d="M74.37,91.13h-66V77.74h112.2a1.15,1.15,0,1,1,0,2.29H10.62v8.81H74.37a1.15,1.15,0,1,1,0,2.29Z"/><path class="cls-1" d="M57.71,124.45H14.08A14.1,14.1,0,0,1,0,110.37v-7.44A14.1,14.1,0,0,1,14.08,88.84h66a1.15,1.15,0,1,1,0,2.29h-66A11.8,11.8,0,0,0,2.29,102.92v7.44a11.8,11.8,0,0,0,11.79,11.79H57.71a1.15,1.15,0,1,1,0,2.29Z"/><path class="cls-1" d="M15,24.5a1.14,1.14,0,0,1-1.15-1.15V12.25a1.15,1.15,0,0,1,2.29,0v11.1A1.14,1.14,0,0,1,15,24.5Z"/><path class="cls-1" d="M28.91,24.5a1.14,1.14,0,0,1-1.15-1.15V12.25a1.15,1.15,0,0,1,2.29,0v11.1A1.14,1.14,0,0,1,28.91,24.5Z"/><path class="cls-1" d="M42.79,24.5a1.14,1.14,0,0,1-1.15-1.15V12.25a1.15,1.15,0,0,1,2.29,0v11.1A1.14,1.14,0,0,1,42.79,24.5Z"/><path class="cls-1" d="M56.67,24.5a1.14,1.14,0,0,1-1.15-1.15V12.25a1.15,1.15,0,0,1,2.29,0v11.1A1.14,1.14,0,0,1,56.67,24.5Z"/><path class="cls-1" d="M103.87,18.95H67.78a1.15,1.15,0,1,1,0-2.29h36.09a1.15,1.15,0,0,1,0,2.29Z"/><path class="cls-1" d="M15,68.92a1.14,1.14,0,0,1-1.15-1.15V56.67a1.15,1.15,0,1,1,2.29,0V67.78A1.14,1.14,0,0,1,15,68.92Z"/><path class="cls-1" d="M28.91,68.92a1.14,1.14,0,0,1-1.15-1.15V56.67a1.15,1.15,0,0,1,2.29,0V67.78A1.14,1.14,0,0,1,28.91,68.92Z"/><path class="cls-1" d="M42.79,68.92a1.14,1.14,0,0,1-1.15-1.15V56.67a1.15,1.15,0,0,1,2.29,0V67.78A1.14,1.14,0,0,1,42.79,68.92Z"/><path class="cls-1" d="M56.67,68.92a1.14,1.14,0,0,1-1.15-1.15V56.67a1.15,1.15,0,1,1,2.29,0V67.78A1.14,1.14,0,0,1,56.67,68.92Z"/><path class="cls-1" d="M103.87,63.37H67.78a1.15,1.15,0,1,1,0-2.29h36.09a1.15,1.15,0,0,1,0,2.29Z"/><path class="cls-1" d="M15,113.34a1.14,1.14,0,0,1-1.15-1.15v-11.1a1.15,1.15,0,0,1,2.29,0v11.1A1.14,1.14,0,0,1,15,113.34Z"/><path class="cls-1" d="M28.91,113.34a1.14,1.14,0,0,1-1.15-1.15v-11.1a1.15,1.15,0,0,1,2.29,0v11.1A1.14,1.14,0,0,1,28.91,113.34Z"/><path class="cls-1" d="M42.79,113.34a1.14,1.14,0,0,1-1.15-1.15v-11.1a1.15,1.15,0,0,1,2.29,0v11.1A1.14,1.14,0,0,1,42.79,113.34Z"/><path class="cls-1" d="M56.67,113.34a1.14,1.14,0,0,1-1.15-1.15v-11.1a1.15,1.15,0,0,1,2.29,0v11.1A1.14,1.14,0,0,1,56.67,113.34Z"/><path class="cls-1" d="M113.39,130.84l-20.29,0H81.39a17.64,17.64,0,1,1,2.67-35.08,14.85,14.85,0,0,1,28.41-1.19A10.83,10.83,0,0,1,123.58,98c.45,0,.9-.07,1.36-.07a16,16,0,0,1,16,16c0,9.06-7.32,16.8-16,16.91C123.28,130.84,118.84,130.84,113.39,130.84Zm-32-33a15.36,15.36,0,1,0,0,30.71H93.1c11.91,0,28.24,0,31.83,0,7.43-.09,13.71-6.79,13.71-14.62a13.71,13.71,0,0,0-13.7-13.7,14,14,0,0,0-1.72.12l-.66.08-.4-.53a8.56,8.56,0,0,0-10-2.81l-1.21.49-.33-1.26a12.56,12.56,0,0,0-24.54,1l-.21,1.17-1.17-.26A15.54,15.54,0,0,0,81.39,97.81Z"/><path class="cls-1" d="M104.45,125.56H82.35c-6.88,0-11.46-3.46-12.26-9.26-.86-6.2,2.94-12.92,8.14-14.39a1.15,1.15,0,0,1,.62,2.21c-4.09,1.15-7.19,6.81-6.49,11.87.38,2.72,2.18,7.29,10,7.29h22.09a1.15,1.15,0,1,1,0,2.29Z"/><path class="cls-1" d="M120.95,107.85a1.15,1.15,0,0,1-1-.6,6.73,6.73,0,0,0-9.12-2.74,1.15,1.15,0,1,1-1.08-2A9,9,0,0,1,122,106.16a1.15,1.15,0,0,1-1,1.69Z"/></svg>