<svg id="图层_1" data-name="图层 1" xmlns="http://www.w3.org/2000/svg" viewBox="0 0 144.98 140"><defs><style>.cls-1{fill:#1a3356;}.cls-2{fill:#153151;}.cls-3{fill:#173253;}</style></defs><title>icon</title><path class="cls-1" d="M72.22,123.7a53.83,53.83,0,1,1,53.83-53.83A53.89,53.89,0,0,1,72.22,123.7Zm0-105.38a51.54,51.54,0,1,0,51.54,51.54A51.6,51.6,0,0,0,72.22,18.33Z"/><path class="cls-1" d="M50.28,118.16a1.15,1.15,0,0,1-.81-2l11.36-11.36a3.74,3.74,0,0,0,1.09-2.63V93.05a3.72,3.72,0,0,0-3.71-3.71H45.73a6,6,0,0,1-5.57-3.78l-.69-1.73A6,6,0,0,1,45,75.6h4.55a3.68,3.68,0,0,0,2.63-1.09l2-2a3.71,3.71,0,0,0,0-5.25,6,6,0,0,1,0-8.49l3.1-3.1v-9a3.69,3.69,0,0,0-1.09-2.63l-4-4a3.69,3.69,0,0,0-2.63-1.09H31a1.15,1.15,0,1,1,0-2.29h18.6a6,6,0,0,1,4.25,1.76l4,4a6,6,0,0,1,1.76,4.25V56.6l-3.77,3.77a3.71,3.71,0,0,0,0,5.25,6,6,0,0,1,0,8.49l-2,2a6,6,0,0,1-4.25,1.76H45A3.71,3.71,0,0,0,41.59,83l.69,1.73A3.69,3.69,0,0,0,45.73,87H58.2a6,6,0,0,1,6,6v9.16a6,6,0,0,1-1.76,4.25L51.09,117.82A1.14,1.14,0,0,1,50.28,118.16Zm8.2-62h0Z"/><path class="cls-1" d="M67.64,36.65a6.72,6.72,0,0,1-4.72-2L50.8,22.57A1.15,1.15,0,0,1,52.41,21L64.54,33.08a4.54,4.54,0,0,0,6.2,0L71.8,32a20.84,20.84,0,0,0,6.14-14.83h2.29v.45a1.14,1.14,0,0,1,0,.13,23.11,23.11,0,0,1-6.81,15.88L72.36,34.7A6.72,6.72,0,0,1,67.64,36.65Z"/><path class="cls-1" d="M111.16,105.38a1.14,1.14,0,0,1-.81-.34L96,90.68a6.82,6.82,0,0,1-2-4.86V66.43a4.59,4.59,0,0,0-4.58-4.58A6.88,6.88,0,0,1,82.53,55V47a6.82,6.82,0,0,1,2-4.86l16.65-16.65a1.15,1.15,0,1,1,1.62,1.62L86.16,43.8A4.55,4.55,0,0,0,84.82,47V55a4.59,4.59,0,0,0,4.58,4.58,6.88,6.88,0,0,1,6.87,6.87V85.82a4.55,4.55,0,0,0,1.34,3.24L112,103.42a1.15,1.15,0,0,1-.81,2Z"/><path class="cls-1" d="M139.42,70.58a1.14,1.14,0,0,1-1.15-1.15A66.06,66.06,0,0,0,17.73,32.11a1.15,1.15,0,0,1-1.89-1.3A68.35,68.35,0,0,1,140.56,69.44,1.14,1.14,0,0,1,139.42,70.58Z"/><path class="cls-1" d="M29.86,32.6H15.57V18.9a1.15,1.15,0,0,1,2.29,0V30.31h12a1.15,1.15,0,1,1,0,2.29Z"/><path class="cls-1" d="M73.69,139A68.42,68.42,0,0,1,5.35,70.63a1.15,1.15,0,1,1,2.29,0A66.06,66.06,0,0,0,128.19,108a1.15,1.15,0,0,1,1.89,1.3A68.37,68.37,0,0,1,73.69,139Z"/><path class="cls-1" d="M129.2,122.32a1.14,1.14,0,0,1-1.15-1.15V109.76h-12a1.15,1.15,0,0,1,0-2.29h14.29v13.7A1.14,1.14,0,0,1,129.2,122.32Z"/><circle class="cls-2" cx="138.8" cy="74.41" r="4.55"/><path class="cls-1" d="M138.8,80.11a5.69,5.69,0,1,1,5.69-5.69A5.7,5.7,0,0,1,138.8,80.11Zm0-9.09a3.4,3.4,0,1,0,3.4,3.4A3.4,3.4,0,0,0,138.8,71Z"/><circle class="cls-3" cx="6.5" cy="66.08" r="4.55"/><path class="cls-1" d="M6.5,71.78a5.69,5.69,0,1,1,5.69-5.69A5.7,5.7,0,0,1,6.5,71.78Zm0-9.09a3.4,3.4,0,1,0,3.4,3.4A3.4,3.4,0,0,0,6.5,62.68Z"/></svg>