<svg id="图层_1" data-name="图层 1" xmlns="http://www.w3.org/2000/svg" viewBox="0 0 144.98 140"><defs><style>.cls-1{fill:#040000;}.cls-2{fill:none;stroke:#040000;stroke-miterlimit:10;}</style></defs><title>sfadf</title><path class="cls-1" d="M72.22,123.7a53.83,53.83,0,1,1,53.83-53.83A53.89,53.89,0,0,1,72.22,123.7Zm0-105.37a51.54,51.54,0,1,0,51.54,51.54A51.6,51.6,0,0,0,72.22,18.33Z"/><path class="cls-1" d="M50.28,118.16a1.15,1.15,0,0,1-.81-2l11.36-11.36a3.73,3.73,0,0,0,1.08-2.62V93.05a3.72,3.72,0,0,0-3.71-3.71H45.73a6,6,0,0,1-5.57-3.78l-.7-1.73A6,6,0,0,1,45,75.6h4.55a3.71,3.71,0,0,0,2.63-1.09l2-2a3.71,3.71,0,0,0,0-5.25,6,6,0,0,1,0-8.49l3.1-3.1v-9a3.73,3.73,0,0,0-1.09-2.63l-4-4a3.71,3.71,0,0,0-2.63-1.09H31a1.15,1.15,0,1,1,0-2.29h18.6a6,6,0,0,1,4.25,1.76l4,4a5.93,5.93,0,0,1,1.76,4.24V56.6l-3.77,3.77a3.71,3.71,0,0,0,0,5.25,6,6,0,0,1,0,8.49l-2,2a6,6,0,0,1-4.25,1.76H45A3.71,3.71,0,0,0,41.59,83l.69,1.73a3.7,3.7,0,0,0,3.45,2.34H58.2a6,6,0,0,1,6,6v9.17a6,6,0,0,1-1.76,4.24L51.09,117.82A1.18,1.18,0,0,1,50.28,118.16Zm8.2-62h0Z"/><path class="cls-1" d="M67.64,36.65a6.72,6.72,0,0,1-4.72-1.95L50.8,22.57A1.14,1.14,0,1,1,52.41,21L64.54,33.08a4.54,4.54,0,0,0,6.2,0L71.8,32A20.81,20.81,0,0,0,78,17.18h2.29v.45a.49.49,0,0,1,0,.12,23.09,23.09,0,0,1-6.81,15.88L72.36,34.7A6.72,6.72,0,0,1,67.64,36.65Z"/><path class="cls-1" d="M111.16,105.38a1.18,1.18,0,0,1-.81-.34L96,90.68a6.82,6.82,0,0,1-2-4.86V66.43a4.59,4.59,0,0,0-4.58-4.58A6.88,6.88,0,0,1,82.53,55V47a6.86,6.86,0,0,1,2-4.86l16.65-16.65a1.16,1.16,0,0,1,1.62,0,1.14,1.14,0,0,1,0,1.62L86.16,43.8A4.59,4.59,0,0,0,84.82,47V55a4.59,4.59,0,0,0,4.58,4.58,6.88,6.88,0,0,1,6.87,6.87V85.82a4.56,4.56,0,0,0,1.35,3.24L112,103.42a1.15,1.15,0,0,1-.81,2Z"/><path class="cls-1" d="M139.42,70.58a1.14,1.14,0,0,1-1.15-1.14A66.05,66.05,0,0,0,17.73,32.11a1.15,1.15,0,0,1-1.89-1.3A68.34,68.34,0,0,1,140.56,69.44,1.14,1.14,0,0,1,139.42,70.58Z"/><path class="cls-1" d="M29.86,32.6H15.57V18.9a1.15,1.15,0,1,1,2.29,0V30.31h12a1.15,1.15,0,0,1,0,2.29Z"/><path class="cls-1" d="M73.69,139A68.42,68.42,0,0,1,5.35,70.63a1.15,1.15,0,0,1,2.29,0A66.06,66.06,0,0,0,128.19,108a1.15,1.15,0,0,1,1.89,1.3A68.39,68.39,0,0,1,73.69,139Z"/><path class="cls-1" d="M129.2,122.32a1.15,1.15,0,0,1-1.14-1.15V109.76h-12a1.15,1.15,0,1,1,0-2.29h14.29v13.7A1.15,1.15,0,0,1,129.2,122.32Z"/><circle class="cls-2" cx="138.8" cy="74.41" r="4.55"/><path class="cls-1" d="M138.8,80.11a5.7,5.7,0,1,1,5.69-5.7A5.71,5.71,0,0,1,138.8,80.11Zm0-9.1a3.41,3.41,0,1,0,3.4,3.4A3.4,3.4,0,0,0,138.8,71Z"/><circle class="cls-2" cx="6.5" cy="66.08" r="4.55"/><path class="cls-1" d="M6.5,71.78a5.7,5.7,0,1,1,5.69-5.7A5.7,5.7,0,0,1,6.5,71.78Zm0-9.1a3.41,3.41,0,1,0,3.4,3.4A3.4,3.4,0,0,0,6.5,62.68Z"/></svg>