<svg id="图层_1" data-name="图层 1" xmlns="http://www.w3.org/2000/svg" viewBox="0 0 140.73 131.79"><defs><style>.cls-1{fill:#040000;}</style></defs><title>icon</title><path class="cls-1" d="M101.95,56.13a1.14,1.14,0,0,1-1.08-1.53,32.52,32.52,0,0,0,.28-20.76,1.15,1.15,0,0,1,2.18-.71,34.81,34.81,0,0,1-.3,22.23A1.14,1.14,0,0,1,101.95,56.13Z"/><path class="cls-1" d="M38.87,56.37a1.14,1.14,0,0,1-1.08-.76,34.79,34.79,0,0,1-.17-23.11,1.15,1.15,0,0,1,2.17.75,32.5,32.5,0,0,0,.16,21.59,1.15,1.15,0,0,1-1.08,1.53Z"/><path class="cls-1" d="M85.37,76A1.14,1.14,0,0,1,85,76c-7.58-2.53-24.4-9.68-28.92-12.81C48,57.58,43,48.41,43,39.24a27.37,27.37,0,0,1,54.74,0A27.12,27.12,0,0,1,92,55.95a1.15,1.15,0,0,1-1.81-1.4,24.84,24.84,0,0,0,5.21-15.31,25.08,25.08,0,0,0-50.16,0c0,8.42,4.64,16.88,12.1,22.05,4,2.79,20.33,9.85,28.34,12.52A1.15,1.15,0,0,1,85.37,76Z"/><path class="cls-1" d="M127.28,111.81H13.45A13.47,13.47,0,0,1,0,98.36V13.45A13.47,13.47,0,0,1,13.45,0H127.28a13.47,13.47,0,0,1,13.45,13.45V98.36A13.47,13.47,0,0,1,127.28,111.81ZM13.45,2.29A11.18,11.18,0,0,0,2.29,13.45V98.36a11.18,11.18,0,0,0,11.16,11.16H127.28a11.18,11.18,0,0,0,11.16-11.16V13.45A11.18,11.18,0,0,0,127.28,2.29Z"/><path class="cls-1" d="M132.35,15.39a1.14,1.14,0,0,1-1.15-1.15A6.23,6.23,0,0,0,125,8a1.15,1.15,0,0,1,0-2.29,8.53,8.53,0,0,1,8.52,8.52A1.14,1.14,0,0,1,132.35,15.39Z"/><path class="cls-1" d="M125,106.09a1.15,1.15,0,0,1,0-2.29,6.23,6.23,0,0,0,6.22-6.23,1.15,1.15,0,0,1,2.29,0A8.53,8.53,0,0,1,125,106.09Z"/><path class="cls-1" d="M15.75,106.09a8.53,8.53,0,0,1-8.52-8.52,1.15,1.15,0,0,1,2.29,0,6.23,6.23,0,0,0,6.22,6.23,1.15,1.15,0,1,1,0,2.29Z"/><path class="cls-1" d="M8.38,15.39a1.14,1.14,0,0,1-1.15-1.15,8.53,8.53,0,0,1,8.52-8.52,1.15,1.15,0,0,1,0,2.29,6.23,6.23,0,0,0-6.22,6.23A1.14,1.14,0,0,1,8.38,15.39Z"/><path class="cls-1" d="M114.32,131.79H24.11a7.63,7.63,0,1,1,0-15.26h90.21a7.63,7.63,0,1,1,0,15.26Zm-90.21-13a5.34,5.34,0,0,0,0,10.68h90.21a5.34,5.34,0,1,0,0-10.68Z"/><path class="cls-1" d="M84.33,85.3a1.15,1.15,0,0,1-.41-.08L54.8,74.06a1.15,1.15,0,0,1,.82-2.14L84.74,83.08a1.15,1.15,0,0,1-.41,2.21Z"/><path class="cls-1" d="M80.46,93a1.15,1.15,0,0,1-.41-.08L58.81,84.73a1.15,1.15,0,0,1,.82-2.14l21.24,8.14A1.15,1.15,0,0,1,80.46,93Z"/><path class="cls-1" d="M76.15,99.93a1.15,1.15,0,0,1-.41-.08L63.13,95A1.15,1.15,0,0,1,64,92.88l12.61,4.83a1.15,1.15,0,0,1-.41,2.21Z"/><path class="cls-1" d="M83.21,37.27A4.23,4.23,0,1,1,87.45,33,4.24,4.24,0,0,1,83.21,37.27Zm0-6.18A1.94,1.94,0,1,0,85.16,33,1.95,1.95,0,0,0,83.21,31.09Z"/><path class="cls-1" d="M61.41,39.53a4.24,4.24,0,1,1,4.24-4.24A4.24,4.24,0,0,1,61.41,39.53Zm0-6.18a1.95,1.95,0,1,0,1.95,1.95A1.95,1.95,0,0,0,61.41,33.35Z"/><path class="cls-1" d="M70.93,45.6a1.14,1.14,0,0,1-.73-.27l-7.85-6.57A1.15,1.15,0,0,1,63.82,37l7.85,6.57a1.15,1.15,0,0,1-.74,2Z"/><path class="cls-1" d="M71.36,46a1.15,1.15,0,0,1-.81-2l9.54-9.59a1.15,1.15,0,1,1,1.62,1.62l-9.54,9.59A1.14,1.14,0,0,1,71.36,46Z"/><path class="cls-1" d="M71.16,57.83h0A1.15,1.15,0,0,1,70,56.67l.2-12.37a1.15,1.15,0,0,1,1.15-1.13h0a1.15,1.15,0,0,1,1.13,1.16l-.2,12.37A1.15,1.15,0,0,1,71.16,57.83Z"/><path class="cls-1" d="M105.64,98V74.73h23.45l0,1.17a22.54,22.54,0,0,1-22.26,22ZM107.93,77V95.6A20.25,20.25,0,0,0,126.7,77Z"/><path class="cls-1" d="M28.69,82.71h-9L15.17,74.9l4.51-7.81h9l4.51,7.81ZM21,80.42h6.37l3.19-5.52-3.19-5.52H21L17.81,74.9Z"/><path class="cls-1" d="M95.35,125.31H43.09a1.15,1.15,0,0,1,0-2.29H95.35a1.15,1.15,0,0,1,0,2.29Z"/></svg>