<svg id="图层_1" data-name="图层 1" xmlns="http://www.w3.org/2000/svg" viewBox="0 0 145.43 129.13"><defs><style>.cls-1{fill:#040000;}</style></defs><title>icon</title><path class="cls-1" d="M113.17,129.13H32.26a1.15,1.15,0,0,1,0-2.29h80.91a1.15,1.15,0,0,1,0,2.29Z"/><path class="cls-1" d="M72.72,129.13A1.14,1.14,0,0,1,71.57,128V112.23a1.15,1.15,0,0,1,2.29,0V128A1.14,1.14,0,0,1,72.72,129.13Z"/><path class="cls-1" d="M52.32,99.67H30a19.08,19.08,0,0,1-19-18.53v-8a1.15,1.15,0,1,1,2.29,0v8A16.77,16.77,0,0,0,30,97.38H52.32a1.15,1.15,0,1,1,0,2.29Z"/><path class="cls-1" d="M47.86,104.13a1.15,1.15,0,0,1-.81-2l3.65-3.65-3.65-3.65a1.15,1.15,0,0,1,1.62-1.62l5.27,5.27-5.27,5.27A1.14,1.14,0,0,1,47.86,104.13Z"/><path class="cls-1" d="M12.21,68.21a1.14,1.14,0,0,1-1.15-1.15V64.5a1.15,1.15,0,1,1,2.29,0v2.56A1.14,1.14,0,0,1,12.21,68.21Z"/><path class="cls-1" d="M133.22,40.62a1.14,1.14,0,0,1-1.15-1.15v-8A16.78,16.78,0,0,0,115.4,15.22H93.11a1.15,1.15,0,1,1,0-2.29H115.4a19.08,19.08,0,0,1,19,18.53v8A1.14,1.14,0,0,1,133.22,40.62Z"/><path class="cls-1" d="M97.57,19.67a1.14,1.14,0,0,1-.81-.34L91.5,14.07l5.27-5.27a1.15,1.15,0,1,1,1.62,1.62l-3.65,3.65,3.65,3.65a1.15,1.15,0,0,1-.81,2Z"/><path class="cls-1" d="M133.22,51.1A1.14,1.14,0,0,1,132.08,50V44.13a1.15,1.15,0,1,1,2.29,0V50A1.14,1.14,0,0,1,133.22,51.1Z"/><path class="cls-1" d="M133.22,60.92a1.14,1.14,0,0,1-1.15-1.15V57.21a1.15,1.15,0,1,1,2.29,0v2.56A1.14,1.14,0,0,1,133.22,60.92Z"/><path class="cls-1" d="M12.21,60.19A1.14,1.14,0,0,1,11.06,59V24.18A11.16,11.16,0,0,1,22.21,13H81.37a1.15,1.15,0,1,1,0,2.29H22.21a8.87,8.87,0,0,0-8.86,8.86V59A1.14,1.14,0,0,1,12.21,60.19Z"/><path class="cls-1" d="M122.9,99.67H69a1.15,1.15,0,1,1,0-2.29H122.9a9.25,9.25,0,0,0,9.24-9.24V67a1.15,1.15,0,0,1,2.29,0V88.14A11.54,11.54,0,0,1,122.9,99.67Z"/><path class="cls-1" d="M126.71,113.38h-108A18.74,18.74,0,0,1,0,94.66V18.72A18.74,18.74,0,0,1,18.72,0h108a18.74,18.74,0,0,1,18.72,18.72V94.66A18.74,18.74,0,0,1,126.71,113.38ZM18.72,2.29A16.45,16.45,0,0,0,2.29,18.72V94.66a16.45,16.45,0,0,0,16.43,16.43h108a16.45,16.45,0,0,0,16.43-16.43V18.72A16.45,16.45,0,0,0,126.71,2.29Z"/><path class="cls-1" d="M61.2,81.16H42.29a6.53,6.53,0,0,1-6.52-6.52V34.85a6.53,6.53,0,0,1,6.52-6.53H61.2a6.53,6.53,0,0,1,6.53,6.53V74.64A6.53,6.53,0,0,1,61.2,81.16ZM42.29,30.62a4.24,4.24,0,0,0-4.23,4.23V74.64a4.24,4.24,0,0,0,4.23,4.23H61.2a4.24,4.24,0,0,0,4.23-4.23V34.85a4.24,4.24,0,0,0-4.23-4.23Z"/><rect class="cls-1" x="36.91" y="37.12" width="29.67" height="2.29"/><rect class="cls-1" x="36.91" y="70.08" width="29.67" height="2.29"/><rect class="cls-1" x="50.6" y="74.52" width="2.29" height="2.2"/><rect class="cls-1" x="53.22" y="42.84" width="2.29" height="8.42" transform="translate(-17.47 44.01) rotate(-38.45)"/><rect class="cls-1" x="58.45" y="52.24" width="2.29" height="2.81" transform="translate(-20.44 48.71) rotate(-38.46)"/><rect class="cls-1" x="47.98" y="58.23" width="2.29" height="8.42" transform="matrix(0.78, -0.62, 0.62, 0.78, -28.18, 44.11)"/><rect class="cls-1" x="42.75" y="54.44" width="2.29" height="2.81" transform="translate(-25.21 39.41) rotate(-38.46)"/><rect class="cls-1" x="50.6" y="43.52" width="2.29" height="22.45" transform="translate(-22.82 44.05) rotate(-38.46)"/><path class="cls-1" d="M92.07,75.16a1.15,1.15,0,0,1-.81-2,23,23,0,0,0,0-32.52,1.15,1.15,0,0,1,1.62-1.62,25.29,25.29,0,0,1,0,35.76A1.14,1.14,0,0,1,92.07,75.16Z"/><path class="cls-1" d="M99.66,79.49a1.15,1.15,0,0,1-.81-2,29.12,29.12,0,0,0,0-41.18,1.15,1.15,0,1,1,1.62-1.62,31.41,31.41,0,0,1,0,44.42A1.14,1.14,0,0,1,99.66,79.49Z"/><path class="cls-1" d="M86.13,69.22a1.15,1.15,0,0,1-.81-2,14.6,14.6,0,0,0,0-20.65A1.15,1.15,0,0,1,86.94,45a16.89,16.89,0,0,1,0,23.89A1.14,1.14,0,0,1,86.13,69.22Z"/><path class="cls-1" d="M81.37,64.21a1.15,1.15,0,0,1-.81-2,7.51,7.51,0,0,0,0-10.62A1.15,1.15,0,0,1,82.18,50a9.8,9.8,0,0,1,0,13.86A1.14,1.14,0,0,1,81.37,64.21Z"/></svg>